#!OML:ASF E:\CV Data\Top Level 1\Subject 1\Session 1\player.ASF
:FULLY-SPECIFIED
:DEGREES
811
root 2.36969 17.6528 -17.721 4.01164 -1.26839 -4.77031
lowerback 7.1071 -2.02279 1.02101
upperback -0.125064 -2.49248 2.87056
thorax -4.03053 -1.23022 2.66173
lowerneck -9.44979 -12.4346 -16.0963
upperneck 32.4469 -18.6931 10.8325
head 15.7174 -8.83877 3.88781
rclavicle 1.44119e-014 -2.23633e-014
rhumerus -20.7872 19.2195 -87.5313
rradius 92.4072
rwrist 5.12384
rhand -30.1548 0.970717
rfingers 7.12502
rthumb -3.46699 -28.9808
lclavicle 1.44119e-014 -2.23633e-014
lhumerus -21.1171 -30.9864 104.062
lradius 72.0425
lwrist 8.00285
lhand -23.5211 19.6098
lfingers 7.12502
lthumb 2.93983 49.5693
rfemur -18.9322 0.842404 22.6403
rtibia 51.4367
rfoot -17.9141 -13.3304
rtoes -2.5879
lfemur -12.6262 3.76487 -16.792
ltibia 28.4716
lfoot -13.8024 4.28584
ltoes -2.24428
812
root 2.36482 17.6609 -17.7889 4.04981 -1.54447 -4.80908
lowerback 7.11357 -1.87156 1.2465
upperback -0.0641402 -2.2725 2.89541
thorax -3.9868 -1.12556 2.53677
lowerneck -9.63573 -12.2977 -15.9085
upperneck 33.1615 -18.4532 10.4294
head 15.9853 -8.74496 3.74645
rclavicle -1.73688e-014 -7.7526e-015
rhumerus -20.5175 20.1261 -87.5197
rradius 91.7155
rwrist 7.49887
rhand -30.542 1.51589
rfingers 7.12502
rthumb -3.84091 -28.4292
lclavicle -1.73688e-014 -7.7526e-015
lhumerus -21.132 -30.8928 104.028
lradius 72.0637
lwrist 7.95438
lhand -23.3193 19.4826
lfingers 7.12502
lthumb 3.13477 49.4393
rfemur -18.1182 1.00719 22.797
rtibia 51.296
rfoot -17.8788 -12.9605
rtoes -2.90529
lfemur -12.8586 3.84699 -16.7463
ltibia 28.4378
lfoot -13.5568 4.37237
ltoes -2.12867
813
root 2.35859 17.6695 -17.8565 4.1307 -1.80171 -4.84254
lowerback 7.08042 -1.71727 1.4617
upperback -0.00961007 -2.0504 2.92775
thorax -3.92536 -1.01948 2.42384
lowerneck -9.77755 -12.1721 -15.7422
upperneck 33.7887 -18.2316 10.0701
head 16.2186 -8.66001 3.62209
rclavicle 1.74434e-014 2.88238e-014
rhumerus -20.2964 21.0456 -87.5207
rradius 90.8203
rwrist 9.68489
rhand -31.0872 2.13214
rfingers 7.12502
rthumb -4.36736 -27.8028
lclavicle 1.74434e-014 2.88238e-014
lhumerus -21.1827 -30.8015 104.01
lradius 72.0904
lwrist 8.0116
lhand -23.0817 19.4763
lfingers 7.12502
lthumb 3.36424 49.4295
rfemur -17.3309 1.17941 22.9361
rtibia 51.0598
rfoot -17.837 -12.6126
rtoes -3.19881
lfemur -13.1403 3.92844 -16.7025
ltibia 28.4025
lfoot -13.3071 4.44369
ltoes -2.03426
814
root 2.35086 17.6783 -17.9232 4.25575 -2.0597 -4.87738
lowerback 6.99692 -1.55596 1.66819
upperback 0.039629 -1.8214 2.96917
thorax -3.83935 -0.909597 2.32321
lowerneck -9.85751 -12.056 -15.6044
upperneck 34.3202 -18.028 9.76045
head 16.4084 -8.5846 3.51995
rclavicle -2.09469e-014 2.62396e-014
rhumerus -20.113 21.967 -87.54
rradius 89.7045
rwrist 11.6562
rhand -31.8029 2.871
rfingers 7.12502
rthumb -5.05838 -27.0486
lclavicle -2.09469e-014 2.62396e-014
lhumerus -21.2642 -30.693 104.007
lradius 72.1145
lwrist 8.19475
lhand -22.8583 19.4798
lfingers 7.12502
lthumb 3.57998 49.4295
rfemur -16.57 1.37415 23.0663
rtibia 50.7252
rfoot -17.7888 -12.2915
rtoes -3.44782
lfemur -13.4689 4.04514 -16.6516
ltibia 28.3682
lfoot -13.0617 4.48513
ltoes -1.94941
815
root 2.34184 17.6871 -17.989 4.42243 -2.30184 -4.91404
lowerback 6.85991 -1.39199 1.8692
upperback 0.0818789 -1.59151 3.01918
thorax -3.72888 -0.798868 2.23361
lowerneck -9.82419 -11.9454 -15.5106
upperneck 34.7321 -17.8451 9.52077
head 16.533 -8.52176 3.454
rclavicle -9.0447e-015 -1.27222e-014
rhumerus -19.9686 22.8635 -87.5779
rradius 88.3603
rwrist 13.4101
rhand -32.6982 3.7607
rfingers 7.12502
rthumb -5.92288 -26.1365
lclavicle -9.0447e-015 -1.27222e-014
lhumerus -21.3561 -30.5704 104.014
lradius 72.1248
lwrist 8.49348
lhand -22.6253 19.4597
lfingers 7.12502
lthumb 3.80498 49.4055
rfemur -15.8341 1.57325 23.1888
rtibia 50.288
rfoot -17.7298 -12.0013
rtoes -3.65843
lfemur -13.8467 4.19287 -16.5936
ltibia 28.339
lfoot -12.8253 4.48401
ltoes -1.86888
816
root 2.33119 17.6954 -18.0545 4.60772 -2.53896 -4.95299
lowerback 6.70157 -1.22133 2.06277
upperback 0.129731 -1.35506 3.07525
thorax -3.59926 -0.684387 2.15416
lowerneck -9.76872 -11.8531 -15.4446
upperneck 35.0774 -17.693 9.32725
head 16.6357 -8.47121 3.40484
rclavicle 1.24737e-014 -2.84262e-014
rhumerus -19.8237 23.7096 -87.623
rradius 86.7801
rwrist 14.9749
rhand -33.7599 4.8049
rfingers 7.12502
rthumb -6.94777 -25.0611
lclavicle 1.24737e-014 -2.84262e-014
lhumerus -21.4511 -30.4258 104.023
lradius 72.1252
lwrist 8.87518
lhand -22.4295 19.3383
lfingers 7.12502
lthumb 3.99401 49.2806
rfemur -15.1004 1.78443 23.3048
rtibia 49.7457
rfoot -17.6647 -11.739
rtoes -3.81291
lfemur -14.2501 4.38747 -16.5269
ltibia 28.3186
lfoot -12.6025 4.43679
ltoes -1.78497
817
root 2.31902 17.7033 -18.1204 4.79904 -2.75186 -4.99243
lowerback 6.55748 -1.05155 2.24917
upperback 0.176978 -1.12041 3.13851
thorax -3.47684 -0.570282 2.08798
lowerneck -9.70965 -11.7818 -15.3986
upperneck 35.3782 -17.571 9.15833
head 16.7276 -8.43302 3.36151
rclavicle -1.05853e-014 2.42517e-014
rhumerus -19.6795 24.4758 -87.6713
rradius 84.9687
rwrist 16.4164
rhand -34.8697 5.96784
rfingers 7.12502
rthumb -8.01897 -23.86
lclavicle -1.05853e-014 2.42517e-014
lhumerus -21.548 -30.2526 104.036
lradius 72.1096
lwrist 9.32925
lhand -22.2005 19.1351
lfingers 7.12502
lthumb 4.21516 49.0732
rfemur -14.3585 1.98504 23.4135
rtibia 49.0936
rfoot -17.5893 -11.5062
rtoes -3.92089
lfemur -14.6714 4.58636 -16.4542
ltibia 28.3106
lfoot -12.3877 4.36682
ltoes -1.69121
818
root 2.30547 17.7108 -18.1872 4.99282 -2.92719 -5.03411
lowerback 6.4359 -0.885491 2.43828
upperback 0.225511 -0.890304 3.2053
thorax -3.36466 -0.458149 2.02596
lowerneck -9.68816 -11.7375 -15.3617
upperneck 35.6611 -17.4851 9.00356
head 16.8303 -8.40727 3.31448
rclavicle 3.13086e-015 -8.34896e-015
rhumerus -19.5219 25.1222 -87.7191
rradius 82.9304
rwrist 17.8081
rhand -35.9562 7.15902
rfingers 7.12502
rthumb -9.06754 -22.6261
lclavicle 3.13086e-015 -8.34896e-015
lhumerus -21.6506 -30.067 104.048
lradius 72.0825
lwrist 9.80955
lhand -21.9733 18.8391
lfingers 7.12502
lthumb 4.43455 48.7727
rfemur -13.6083 2.16269 23.5168
rtibia 48.329
rfoot -17.5002 -11.2978
rtoes -3.97027
lfemur -15.1127 4.76534 -16.3749
ltibia 28.3181
lfoot -12.1744 4.28659
ltoes -1.6027
819
root 2.29034 17.7177 -18.2556 5.18618 -3.05799 -5.08104
lowerback 6.3642 -0.724379 2.62629
upperback 0.2704 -0.664741 3.28111
thorax -3.28312 -0.348023 1.97629
lowerneck -9.71557 -11.7224 -15.3321
upperneck 35.9311 -17.4358 8.8558
head 16.9478 -8.39409 3.25962
rclavicle -6.80837e-015 -8.34896e-015
rhumerus -19.3336 25.6289 -87.7489
rradius 80.6559
rwrist 19.2208
rhand -36.9344 8.2484
rfingers 7.12502
rthumb -10.0113 -21.4935
lclavicle -6.80837e-015 -8.34896e-015
lhumerus -21.7635 -29.88 104.063
lradius 72.0463
lwrist 10.2627
lhand -21.6886 18.5313
lfingers 7.12502
lthumb 4.70951 48.459
rfemur -12.8514 2.31231 23.6208
rtibia 47.4497
rfoot -17.3891 -11.1175
rtoes -3.97558
lfemur -15.5766 4.90793 -16.2851
ltibia 28.3449
lfoot -11.9578 4.20321
ltoes -1.51825
820
root 2.27404 17.7242 -18.3254 5.38598 -3.13913 -5.13445
lowerback 6.33138 -0.569638 2.82001
upperback 0.305445 -0.445029 3.36599
thorax -3.23263 -0.240792 1.93468
lowerneck -9.75853 -11.7319 -15.3172
upperneck 36.1739 -17.4208 8.72414
head 17.0663 -8.39407 3.20451
rclavicle 4.52235e-015 7.15625e-015
rhumerus -19.0827 25.9665 -87.7604
rradius 78.1116
rwrist 20.6908
rhand -37.7348 9.1444
rfingers 7.12502
rthumb -10.7834 -20.5588
lclavicle 4.52235e-015 7.15625e-015
lhumerus -21.8931 -29.6893 104.082
lradius 72.0001
lwrist 10.6844
lhand -21.3488 18.2116
lfingers 7.12502
lthumb 5.03752 48.1317
rfemur -12.0975 2.42357 23.7262
rtibia 46.4563
rfoot -17.2425 -10.9622
rtoes -3.981
lfemur -16.0742 5.0075 -16.1859
ltibia 28.3955
lfoot -11.7371 4.12258
ltoes -1.44828
821
root 2.25692 17.7298 -18.397 5.59165 -3.16556 -5.19538
lowerback 6.32137 -0.42457 3.02991
upperback 0.334667 -0.235634 3.45696
thorax -3.2001 -0.138874 1.89196
lowerneck -9.7842 -11.7586 -15.3234
upperneck 36.3696 -17.4344 8.62319
head 17.1685 -8.40566 3.15972
rclavicle 8.54774e-015 -1.59028e-014
rhumerus -18.7534 26.118 -87.7499
rradius 75.2835
rwrist 22.2076
rhand -38.3561 9.7886
rfingers 7.12502
rthumb -11.3827 -19.8825
lclavicle 8.54774e-015 -1.59028e-014
lhumerus -22.0292 -29.4993 104.095
lradius 71.9383
lwrist 11.0339
lhand -20.9467 17.9078
lfingers 7.12502
lthumb 5.42585 47.8183
rfemur -11.3501 2.4869 23.8334
rtibia 45.3522
rfoot -17.0659 -10.8255
rtoes -4.08967
lfemur -16.6092 5.05465 -16.0777
ltibia 28.4736
lfoot -11.5096 4.05182
ltoes -1.3988
822
root 2.23902 17.7344 -18.4698 5.80374 -3.16482 -5.2654
lowerback 6.33584 -0.280195 3.24632
upperback 0.358236 -0.0248175 3.55943
thorax -3.18633 -0.0363357 1.85786
lowerneck -9.80791 -11.8038 -15.3511
upperneck 36.5268 -17.4744 8.54349
head 17.2607 -8.42823 3.12085
rclavicle -9.0447e-015 -1.98785e-014
rhumerus -18.331 26.0842 -87.7069
rradius 72.1742
rwrist 23.6743
rhand -38.8115 10.2257
rfingers 7.12502
rthumb -11.8219 -19.4206
lclavicle -9.0447e-015 -1.98785e-014
lhumerus -22.1741 -29.3037 104.107
lradius 71.856
lwrist 11.2871
lhand -20.5378 17.5658
lfingers 7.12502
lthumb 5.82061 47.4658
rfemur -10.6103 2.52363 23.9434
rtibia 44.1429
rfoot -16.8918 -10.6851
rtoes -4.4541
lfemur -17.1776 5.08172 -15.9587
ltibia 28.5823
lfoot -11.284 3.989
ltoes -1.36402
823
root 2.22076 17.7378 -18.5438 6.02114 -3.12137 -5.33667
lowerback 6.35197 -0.141501 3.47584
upperback 0.379302 0.179732 3.66654
thorax -3.17522 0.0629406 1.82193
lowerneck -9.73906 -11.8556 -15.4196
upperneck 36.5864 -17.5368 8.52293
head 17.2952 -8.46282 3.11373
rclavicle -6.4605e-015 1.03368e-014
rhumerus -17.8323 25.8584 -87.6359
rradius 68.8173
rwrist 25.0412
rhand -39.1153 10.491
rfingers 7.12502
rthumb -12.1148 -19.1383
lclavicle -6.4605e-015 1.03368e-014
lhumerus -22.3162 -29.1183 104.11
lradius 71.7455
lwrist 11.4129
lhand -20.1349 17.2108
lfingers 7.12502
lthumb 6.20958 47.0998
rfemur -9.87917 2.51611 24.0478
rtibia 42.8337
rfoot -16.7506 -10.5225
rtoes -5.19705
lfemur -17.7819 5.09287 -15.8385
ltibia 28.7216
lfoot -11.0637 3.91463
ltoes -1.33943
824
root 2.20184 17.7397 -18.6192 6.2389 -3.05418 -5.40652
lowerback 6.37854 -0.00294336 3.7118
upperback 0.407927 0.384921 3.77708
thorax -3.16128 0.162553 1.78597
lowerneck -9.62632 -11.9173 -15.5181
upperneck 36.5609 -17.6204 8.5521
head 17.2877 -8.50629 3.13004
rclavicle 1.68967e-015 -7.15625e-015
rhumerus -17.2433 25.4519 -87.5211
rradius 65.2767
rwrist 26.2204
rhand -39.2344 10.6433
rfingers 7.12502
rthumb -12.2297 -18.9792
lclavicle 1.68967e-015 -7.15625e-015
lhumerus -22.4389 -28.9376 104.087
lradius 71.607
lwrist 11.3913
lhand -19.8353 16.7031
lfingers 7.12502
lthumb 6.49877 46.5834
rfemur -9.15675 2.48247 24.1445
rtibia 41.4292
rfoot -16.7151 -10.3001
rtoes -6.37334
lfemur -18.4142 5.11347 -15.7201
ltibia 28.8898
lfoot -10.8538 3.81749
ltoes -1.33613
825
root 2.1823 17.7403 -18.6963 6.45485 -2.96283 -5.47266
lowerback 6.4193 0.13369 3.95341
upperback 0.446091 0.588528 3.89191
thorax -3.14453 0.261443 1.7515
lowerneck -9.50872 -11.994 -15.642
upperneck 36.4844 -17.7253 8.60925
head 17.2628 -8.55862 3.15723
rclavicle -9.74045e-015 1.59028e-014
rhumerus -16.5795 24.8707 -87.3585
rradius 61.6244
rwrist 27.2117
rhand -39.1825 10.6994
rfingers 7.12502
rthumb -12.1797 -18.926
lclavicle -9.74045e-015 1.59028e-014
lhumerus -22.5428 -28.7514 104.036
lradius 71.4474
lwrist 11.2319
lhand -19.5109 16.1874
lfingers 7.12502
lthumb 6.812 46.0578
rfemur -8.45381 2.42099 24.2312
rtibia 39.9325
rfoot -16.8292 -9.99696
rtoes -7.8258
lfemur -19.0704 5.13167 -15.6052
ltibia 29.0821
lfoot -10.6506 3.70545
ltoes -1.34173
